<?xml version="1.0" encoding="UTF-8"?>
<svg id="Layer_2" data-name="Layer 2" xmlns="http://www.w3.org/2000/svg" version="1.1" viewBox="0 0 1351.7 1351.7">
  <defs>
    <style>
      .cls-1 {
        fill: #000;
        stroke-width: 0px;
      }
    </style>
  </defs>
  <path class="cls-1" d="M912.7,148.3l-153.8,144.7-1.1,1.2c-42.4-58-102.6-111.5-173.9-145.9-290.9,0-468.2,182.4-468.2,350.6s169.4,268.8,169.4,379-6.7,53.3-16.7,65.1l-126,144.5c-27.9,32-46.8,77-46.8,114.9s0,.8,0,1.2h4.5c0-.8,0-1.6,0-2.4,0-53.3,44.6-103,103.7-103s236.2,71.1,279.7,71.1l99.2-139.8,175.5-228.2-.3-501.8h22.3c227.4,0,382.4,159.2,382.4,387.8s-96.3,283.1-137.6,342.3c-53.5-7.1-283.7-86.5-299.3-86.5l-126,144.5c-27.9,32-46.8,77-46.8,114.9s0,.8,0,1.2h4.4c0-54.5,41.2-104.2,105.9-104.2s153.2,67.9,313.8,63.2c44.6-46.2,77.5-64.9,121.9-133.1,88.1-145.7,157.2-260.6,157.2-467.8s-177.3-413.3-343.4-413.3ZM579.2,1024.7c-47.9-2.4-275.1-75.8-307.4-81.7l173.9-196.6c-100.3-99.5-219.6-223.9-219.6-375.5s72-130.3,134.3-130.3c112.8,0,163.1,35.6,218.8,129.2v654.9Z"/>
</svg>