<?xml version="1.0" encoding="UTF-8"?>
<svg id="Layer_2" data-name="Layer 2" xmlns="http://www.w3.org/2000/svg" version="1.1" viewBox="0 0 2525.5 608.1">
  <defs>
    <style>
      .cls-1 {
        fill: none;
      }

      .cls-1, .cls-2 {
        stroke-width: 0px;
      }

      .cls-2 {
        fill: #fff;
      }
    </style>
  </defs>
  <g>
    <path class="cls-1" d="M1295.9,261.7h202.3s0,0,0,0h0c-12.8-15.5-30.3-36.1-29.4-63.8l29.5-24.4h-185.9l-16.5,88.1Z"/>
    <path class="cls-1" d="M1482.6,317.2c0,27.1,10,59.1,28.3,87.2,14.1-15.5,23.8-40.7,23.3-66.9-.8-38.7-34.7-74.6-35.9-75.8l-13.9,31.2c-1.2,7-1.8,14.9-1.8,24.2Z"/>
    <path class="cls-1" d="M1262.4,434.5h183.4c-18.3-27.1-29.2-60.8-30.1-100.1h-133.9l-19.3,100.1Z"/>
    <path class="cls-1" d="M1527.2,168.4c0,57.2,68.9,82.4,68.9,139.1s-.9,20.8-4.1,29.6l-80.7,68.3c27.8,42.6,73.4,77.1,131.4,77.1s102.6-36.3,102.6-130.9-89.5-204.5-214.4-204.5c0,.1,0,.3-.2.4l-3.4,17.5c0,1.1,0,2.3,0,3.5Z"/>
    <polygon class="cls-2" points="1498.2 261.7 1498.2 261.7 1498.2 261.7 1498.2 261.7"/>
    <path class="cls-2" d="M1498.2,261.7h0c0,0,0,0,0,0Z"/>
    <polygon class="cls-2" points="1498.2 261.7 1498.2 261.7 1498.2 261.7 1498.2 261.7"/>
    <polygon class="cls-2" points="1498.2 261.7 1498.2 261.7 1498.2 261.7 1498.2 261.7"/>
    <polygon class="cls-2" points="1498.2 261.7 1498.2 261.7 1498.2 261.7 1498.2 261.7 1498.2 261.7"/>
    <polygon class="cls-2" points="1498.2 261.7 1498.2 261.7 1498.2 261.7 1498.2 261.7 1498.2 261.7 1498.2 261.7"/>
    <path class="cls-2" d="M1593.8,94.8l-63.3,53.9.4-2,9-45.8h-300.7l-79,406.5h305.3l8.1-41.4h0l5-25.5-5,25.5c32.5,28.5,76,44.1,123.6,44.1,101.3,0,190.7-111,190.7-228.7s-80.3-186.5-193.9-186.5ZM1262.4,434.5l19.3-100.1h128.9c.9,39.3,16.9,73,35.1,100.1h0c.4.6.9,1.2,1.3,1.8-.4-.6-.9-1.2-1.3-1.8h-183.4ZM1482.6,317.2c0-9.3.6-17.3,1.8-24.2,2.3-13,6.7-22.7,13.9-31.2h-202.3l16.5-88.1h185.9l-29.5,24.4c-.9,27.6,16.6,48.3,29.4,63.8,1.1,1.2,35.1,37.1,35.9,75.8.5,26.2-9.1,51.4-23.3,66.9-18.2-28.1-28.3-60.1-28.3-87.2ZM1632.7,482.4c-57.9,0-93.5-34.4-121.4-77.1l80.7-68.3c3.2-8.7,4.1-22.8,4.1-29.6,0-56.7-68.9-81.9-68.9-139.1s0-2.3,0-3.5c0-1.1.1-2.2.2-3.2,123.7,1,217.8,73.9,217.8,189.9s-71.7,130.9-112.7,130.9Z"/>
    <polygon class="cls-2" points="1498.2 261.7 1498.2 261.7 1498.2 261.7 1498.2 261.7"/>
  </g>
  <path class="cls-2" d="M1243.6,100.8h-98.9l-195.6,180.2,35.2-180.2h-88.1l-74.9,385-68.9-385h-91l-113.3,202.4c1.7-12.9,2.6-26.8,2.6-41.8,0-112.9-72.5-169.1-140.5-169.1l-62.9,59.2-.5.5c-17.3-23.7-42-45.6-71.2-59.7-119.1,0-191.6,74.6-191.6,143.5s69.3,110,69.3,155.1-2.7,21.8-6.8,26.7l-51.5,59.1c-11.4,13.1-19.2,31.5-19.2,47s0,.3,0,.5h1.8c0-.3,0-.6,0-1,0-21.8,18.2-42.2,42.4-42.2s96.7,29.1,114.4,29.1l40.6-57.2,71.8-93.4v-205.4c-.1,0,9,0,9,0,93.1,0,156.5,65.1,156.5,158.7s-39.4,115.8-56.3,140.1c-21.9-2.9-116.1-35.4-122.5-35.4l-51.5,59.1c-11.4,13.1-19.2,31.5-19.2,47s0,.3,0,.5h1.8c0-22.3,16.9-42.6,43.3-42.6s62.7,27.8,128.4,25.9h88.5l46.6-89.8h150.7l11.4,89.8h171.6l22.2-114.8,62.5-57.4,87,172.3h101.8l-124.5-232,189.3-174.5ZM273.8,450.9c-19.6-1-112.6-31-125.8-33.4l71.2-80.4c-41.1-40.7-89.9-91.6-89.9-153.7s29.5-53.3,55-53.3c46.1,0,66.7,14.6,89.5,52.9v268ZM606.4,349.3l86.4-167.7h1.1l21,167.7h-108.6Z"/>
  <path class="cls-2" d="M2136.7,100.8h0s-122.5,0-122.5,0l-55.5,64.2c-10.9,12.5-17.2,26.9-17.7,41.7h1.9c1.2-21.4,11.3-33.1,43.4-33.1h85.7l-68.4,76.4v1.6h0s0,155.3,0,155.3c-13.7,18.9-50.1,43.1-77.9,43.1s-71.2-33.4-71.2-97.9v-109.6h0v-68.8l63-72.8h-122.5l-55.5,64.2c-10.9,12.5-17.2,26.9-17.7,41.7h1.9c1.2-21.4,11.3-33.1,43.4-33.1h85.7l-67.9,76.4v134.6c0,70.3,49.1,127.9,121.2,127.9s72-64.5,97.5-101.3v4.8c0,45.6,25.9,78.5,62.8,94l43.3-49.4c13.7-15.5,31-36.8,31-59.1h-1.8c-.3,24.5-19.2,43.1-35.6,43.1s-29.7-9.2-29.7-46v-225l51.6-59.6-12.1,59.6h123.4l-64.8,333.7h88.1l64.2-333.7h122.8l14.2-72.8h-324.4Z"/>
</svg>